<svg xmlns="http://www.w3.org/2000/svg" width="204.663" height="100.786" viewBox="0 0 204.663 100.786">
  <g id="Group_4753" data-name="Group 4753" transform="translate(-6.601 46.73)">
    <g id="Group_4770" data-name="Group 4770" transform="translate(26.608 -47.072)">
      <path id="Path_10156" data-name="Path 10156" d="M1812.936,607.251a5.766,5.766,0,1,0-6.152,5.354A5.766,5.766,0,0,0,1812.936,607.251Z" transform="translate(-1789.209 -591.417)" fill="#f4a683"/>
      <rect id="Rectangle_2923" data-name="Rectangle 2923" width="2" height="7" rx="1" transform="matrix(0.819, 0.574, -0.574, 0.819, 28.008, 2.342)" fill="#f4a683"/>
      <rect id="Rectangle_2924" data-name="Rectangle 2924" width="2" height="7" rx="1" transform="matrix(0.819, -0.574, 0.574, 0.819, 23.993, 22.49)" fill="#f4a683"/>
      <rect id="Rectangle_2925" data-name="Rectangle 2925" width="2" height="7" rx="1" transform="matrix(-0.819, 0.574, -0.574, -0.819, 11.993, 8.076)" fill="#f4a683"/>
      <rect id="Rectangle_2926" data-name="Rectangle 2926" width="2" height="7" rx="1" transform="matrix(-0.819, -0.574, 0.574, -0.819, 7.978, 28.342)" fill="#f4a683"/>
      <rect id="Rectangle_2927" data-name="Rectangle 2927" width="2" height="7" rx="1" transform="translate(33.493 14.342) rotate(90)" fill="#f4a683"/>
      <rect id="Rectangle_2928" data-name="Rectangle 2928" width="2" height="7" rx="1" transform="translate(16.993 23.342)" fill="#f4a683"/>
      <rect id="Rectangle_2929" data-name="Rectangle 2929" width="2" height="7" rx="1" transform="translate(16.993 0.342)" fill="#f4a683"/>
      <rect id="Rectangle_2930" data-name="Rectangle 2930" width="2" height="7" rx="1" transform="translate(9.493 14.342) rotate(90)" fill="#f4a683"/>
    </g>
    <path id="Path_10169" data-name="Path 10169" d="M971.979,1168.629s-26.139-42.077-36.1-43.955S917.389,1140,917.389,1140a13.659,13.659,0,0,0-11.442-2.4c-6.933,1.536-44.119,36.433-44.119,36.433l112.059-1.4Z" transform="translate(-795.412 -1120.262)" fill="#a1d9f7"/>
    <path id="Path_10170" data-name="Path 10170" d="M569.755,1254.434C546.548,1258.3,511.728,1293,485.206,1293s-32.233-8.3-42.178-6.545-23.3,6.545-23.3,6.545l197.085.582S592.962,1250.573,569.755,1254.434Z" transform="translate(-405.551 -1240.303)" fill="#7ecafc"/>
    <path id="Path_10171" data-name="Path 10171" d="M1204.631,1110.019l3.947,31.9a.519.519,0,0,1-.515.583h-7.895a.519.519,0,0,1-.515-.583l3.947-31.9A.519.519,0,0,1,1204.631,1110.019Z" transform="translate(-1055.163 -1106.405)" fill="#299a66"/>
    <path id="Path_10172" data-name="Path 10172" d="M1318.828,1213.154l4.031,32.579a.445.445,0,0,1-.442.5h-8.063a.445.445,0,0,1-.442-.5l4.031-32.579A.445.445,0,0,1,1318.828,1213.154Z" transform="translate(-1177.918 -1201.95)" fill="#299a66"/>
    <g id="Group_4775" data-name="Group 4775" transform="translate(199.057 7.747)">
      <rect id="Rectangle_2904" data-name="Rectangle 2904" width="1.389" height="15.399" rx="0.695" transform="translate(3.782 26.695)" fill="#355389"/>
      <path id="Path_10173" data-name="Path 10173" d="M468.532,1171.809l4.031,32.579a.445.445,0,0,1-.442.5h-8.063a.445.445,0,0,1-.442-.5l4.031-32.579A.445.445,0,0,1,468.532,1171.809Z" transform="translate(-463.614 -1171.418)" fill="#299a66"/>
      <path id="Path_10174" data-name="Path 10174" d="M491.5,1428.743l-5.412,4.641a.445.445,0,0,1-.731-.392l.086-.7a.445.445,0,0,1,.152-.283l5.256-4.507a.445.445,0,0,1,.731.283l.07.564A.445.445,0,0,1,491.5,1428.743Z" transform="translate(-484.314 -1408.41)" fill="#81dbb2"/>
      <path id="Path_10175" data-name="Path 10175" d="M502.49,1319.927l-2.945,1.007a.445.445,0,0,1-.586-.476l.065-.522a.445.445,0,0,1,.3-.366l2.821-.964a.445.445,0,0,1,.586.366l.059.48A.445.445,0,0,1,502.49,1319.927Z" transform="translate(-496.46 -1307.666)" fill="#81dbb2"/>
    </g>
    <g id="Group_4776" data-name="Group 4776" transform="translate(188.055)">
      <rect id="Rectangle_2905" data-name="Rectangle 2905" width="0.999" height="17.511" transform="translate(4.62 28.439)" fill="#355389"/>
      <path id="Path_10176" data-name="Path 10176" d="M606.96,1067.354l4.413,31.674a.445.445,0,0,1-.441.506h-8.826a.445.445,0,0,1-.441-.506l4.413-31.674A.445.445,0,0,1,606.96,1067.354Z" transform="translate(-601.661 -1066.97)" fill="#299a66"/>
      <path id="Path_10177" data-name="Path 10177" d="M613.817,1429.058l-8.836-2.785.134-.959,8.556,2.7Z" transform="translate(-604.347 -1398.736)" fill="#81dbb2"/>
      <path id="Path_10178" data-name="Path 10178" d="M631.811,1290.24l-5.855-1.846.134-.958,5.576,1.758Z" transform="translate(-623.896 -1271.084)" fill="#81dbb2"/>
    </g>
    <path id="Path_10179" data-name="Path 10179" d="M618.922,1492.24s-25.443-22.1-58.25-23.459c-11.017-.456-56.126,8.685-94.112,15.866-1.6.3-5.05,3.257-6.666,3.561a284.963,284.963,0,0,1-40.163,4.313Z" transform="translate(-407.657 -1438.964)" fill="#65cc48"/>
    <path id="Path_10180" data-name="Path 10180" d="M2980.666,1401.857l-.037-1.9a2.484,2.484,0,0,1,2.406-2.556h0a6.261,6.261,0,0,1,6.063,6.441v2.6a2.992,2.992,0,0,0,1.492,2.625,2.643,2.643,0,0,1,1.3,2.319v1.371a5,5,0,0,1-1.746,3.8,3.031,3.031,0,0,0-1.045,2.313v1.941a3.777,3.777,0,0,1-3.658,3.886h-1.153a3.777,3.777,0,0,1-3.658-3.886h0c.332-2.711-.472-4.276-1.4-5.17a7.123,7.123,0,0,1-2.161-5.12v-.274a7.073,7.073,0,0,1,2.4-5.312A3.856,3.856,0,0,0,2980.666,1401.857Z" transform="translate(-2970.299 -1372.891)" fill="#0aa"/>
    <g id="Group_4840" data-name="Group 4840" transform="translate(36.41 22.975)">
      <path id="Path_10346" data-name="Path 10346" d="M1224.09,582.018s-8.155,19.831-11.589,24.553h50.564s-11.16-19.059-12.019-24.553Z" transform="translate(-1210.429 -582.018)" fill="#ffd421"/>
      <path id="Path_10347" data-name="Path 10347" d="M1302.7,582.44c-.666,2.162-1.444,4.28-2.267,6.379-.4,1.054-.847,2.09-1.273,3.134-.442,1.037-.9,2.069-1.355,3.1-.931,2.055-1.914,4.087-2.984,6.079-.535,1-1.089,1.981-1.686,2.945-.152.24-.3.482-.453.719s-.316.472-.479.7c-.308.474-.681.91-1.032,1.349.131-.252.269-.5.4-.746.065-.124.14-.242.2-.37l.185-.38c.122-.253.25-.5.375-.754s.238-.51.357-.764c.241-.507.484-1.011.709-1.527s.477-1.016.7-1.532l2.768-6.148,1.4-3.067c.477-1.019.939-2.045,1.428-3.059C1300.654,586.466,1301.636,584.439,1302.7,582.44Z" transform="translate(-1262.051 -582.295)" fill="#fff"/>
      <g id="Group_4838" data-name="Group 4838" transform="translate(0 21.227)">
        <path id="Path_10348" data-name="Path 10348" d="M1208.118,647.063h1.137a.506.506,0,0,0-.075-.244l-1.754-2.811a.515.515,0,0,0-.874.545Z" transform="translate(-1206.473 -643.765)" fill="#0089d1"/>
      </g>
      <g id="Group_4839" data-name="Group 4839" transform="translate(51.523 21.227)">
        <path id="Path_10349" data-name="Path 10349" d="M1357.488,647.063h-1.137a.5.5,0,0,1,.076-.244l1.753-2.811a.515.515,0,0,1,.874.545Z" transform="translate(-1356.351 -643.765)" fill="#0089d1"/>
      </g>
    </g>
    <path id="Path_10181" data-name="Path 10181" d="M2639.642,1557.46s9.34-12.407,15.218-14.309.338,5.655.338,5.655,10.427-11.4,14.253-10.374c3.508.942,0,8.009,0,8.009s3.951-3.913,8.741-3.913-3.7,14.654-3.7,14.654Z" transform="translate(-2633.041 -1503.403)" fill="#a1d9f7"/>
    <path id="Path_10182" data-name="Path 10182" d="M2277.271,1601.578s6.385-17.074,14.292-15.1c6.408,1.6,1.852,10.191,2.243,9.8s3.827-6.222,9.388-6.222-1.707,7.87-1.707,7.87,11.848-3.7,12.775.185c.77,3.224-3.536,3.465-3.536,3.465Z" transform="translate(-2240.861 -1547.8)" fill="#7ecafc"/>
  </g>
</svg>
