<svg xmlns="http://www.w3.org/2000/svg" width="24.074" height="36.851" viewBox="0 0 24.074 36.851">
  <g id="_dropdown-cluture" data-name=" dropdown-cluture" transform="translate(-27.4 -116.939)">
    <path id="Path_10351" data-name="Path 10351" d="M61.573,116.956c-1.777-.335-2.319,4.429-2.319,4.429l2.673-1.2S61.71,118.9,61.573,116.956Z" transform="translate(-17.003)" fill="#666"/>
    <path id="Path_10352" data-name="Path 10352" d="M64.133,130.685a5.653,5.653,0,0,1-.553-1.6c-.137-1.217,2.05-1.927,2.6-2.326s.684-1.934.684-1.934a2.768,2.768,0,0,1-2.051-1.779c-.683-1.622-1.7-2.332-3.76-2.335-3.554-.006-4.066,4.68-4.443,7.473a13.469,13.469,0,0,1-.381,2.1,17.393,17.393,0,0,0,4.085.592C61.674,130.877,63.119,130.775,64.133,130.685Z" transform="translate(-15.386 -2.016)" fill="#666"/>
    <g id="Group_4866" data-name="Group 4866" transform="translate(27.663 132.815)">
      <path id="Path_10353" data-name="Path 10353" d="M48.494,156.7a15.923,15.923,0,0,0,.914-1.765c-.977.006-1.42-1.873-.65-3.039.011-.017.023-.031.035-.048-1.036.084-2.241.145-3.567.145a18.936,18.936,0,0,1-6.195-1.007,2.28,2.28,0,0,1-1.2,1.182c-2.841,1.389-5.979,3.883-6.7,7.94-.317,1.3-3.337,2.8-3.159,6.347a25.471,25.471,0,0,0,1.245,5.506H50.34a1.555,1.555,0,0,0,0-1.671c-.547-.92-2.135-.266-2.461-.616-.542-.581-.478-1.4-.205-3.582S48.084,157.467,48.494,156.7Z" transform="translate(-27.964 -150.991)" fill="#666"/>
      <g id="Group_4865" data-name="Group 4865" transform="translate(20.402 0.864)">
        <path id="Path_10354" data-name="Path 10354" d="M72.525,153.063c-.124.013-.245.026-.375.038-.012.02-.023.036-.034.056-.77,1.359-.326,3.549.65,3.542.043-.119.084-.242.125-.369C72.214,155.89,71.965,154.235,72.525,153.063Z" transform="translate(-71.724 -152.961)" fill="#ffd421"/>
        <path id="Path_10355" data-name="Path 10355" d="M73.088,152.947c-.56,1.172-.311,2.827.366,3.267a10.835,10.835,0,0,0,.532-3.368C73.71,152.88,73.4,152.914,73.088,152.947Z" transform="translate(-72.287 -152.845)" fill="#bd0041"/>
      </g>
    </g>
    <g id="Group_4867" data-name="Group 4867" transform="translate(38.729 128.269)">
      <path id="Path_10356" data-name="Path 10356" d="M63.391,147.158c-.065-.453-.138-.853-.218-1.208-1.322.147-3.121.248-4.48.248a17.918,17.918,0,0,1-4.879-.718c-.08.157-.159.313-.253.478-.136.24-.255.463-.366.677A25.9,25.9,0,0,0,63.391,147.158Z" transform="translate(-52.498 -143.504)" fill="#ffd421"/>
      <path id="Path_10357" data-name="Path 10357" d="M64.069,142.716a11.185,11.185,0,0,0-.4-1.075c-1.014.09-2.458.192-3.823.192a17.393,17.393,0,0,1-4.085-.592,9.978,9.978,0,0,1-.4,1.152A26.362,26.362,0,0,0,64.069,142.716Z" transform="translate(-53.652 -141.242)" fill="#ffd421"/>
      <path id="Path_10358" data-name="Path 10358" d="M52.009,149.631c-.11.228-.214.443-.309.634a16.54,16.54,0,0,0,6.195,1.173,38.315,38.315,0,0,0,4.84-.309c0-.251-.014-.51-.033-.772a44.02,44.02,0,0,1-4.808.287A19.607,19.607,0,0,1,52.009,149.631Z" transform="translate(-51.7 -145.72)" fill="#ffd421"/>
      <path id="Path_10359" data-name="Path 10359" d="M62.946,148.481a25.9,25.9,0,0,1-10.2-.524c-.147.284-.273.541-.388.78a19.606,19.606,0,0,0,5.886,1.013,44.024,44.024,0,0,0,4.808-.287c-.01-.137-.019-.274-.035-.414C63,148.849,62.972,148.664,62.946,148.481Z" transform="translate(-52.053 -144.826)" fill="#ff6621"/>
      <path id="Path_10360" data-name="Path 10360" d="M63.881,145.007c-.082-.366-.168-.689-.258-.972a26.361,26.361,0,0,1-8.712-.323c-.109.261-.242.538-.389.824a17.918,17.918,0,0,0,4.879.718C60.76,145.254,62.559,145.154,63.881,145.007Z" transform="translate(-53.206 -142.56)" fill="#ff6621"/>
    </g>
    <path id="Path_10361" data-name="Path 10361" d="M70.077,125.869c-.687.013-1.038,1.012-1.038,1.012a2.587,2.587,0,0,0,1.038.424,1.5,1.5,0,0,0,1.026-.342S70.966,125.853,70.077,125.869Z" transform="translate(-22.226 -4.767)" fill="#2d2d2d"/>
    <path id="Path_10362" data-name="Path 10362" d="M59.254,165.018a15.748,15.748,0,0,1,1.336,3.9c.162,1.5.452,6.235.5,7.4s.963,2.392.677,2.324a14.226,14.226,0,0,0-2.212.393s.1-3.065.158-7.536A27.776,27.776,0,0,0,59.254,165.018Z" transform="translate(-17.003 -25.664)" fill="#333"/>
    <path id="Path_10363" data-name="Path 10363" d="M45.572,198.3H28.915c-2.188,0-1.846,2.393,0,2.393H45.572C47.418,200.695,47.76,198.3,45.572,198.3Z" transform="translate(0 -46.905)" fill="#333"/>
    <path id="Path_10364" data-name="Path 10364" d="M45.506,172.975s1.991.772,2.354,4.776a6.348,6.348,0,0,1-2.354,5.826H47.5a9.565,9.565,0,0,0,1.147-6.524C47.86,172.029,45.506,172.975,45.506,172.975Z" transform="translate(-9.131 -30.145)" fill="#333"/>
    <path id="Path_10365" data-name="Path 10365" d="M63.932,116.975c-.438.023-.185,1.982-.185,1.982l.469-.143Z" transform="translate(-19.362 -0.019)" fill="#ffd421"/>
  </g>
</svg>
