<svg xmlns="http://www.w3.org/2000/svg" width="36.514" height="31.827" viewBox="0 0 36.514 31.827">
  <g id="dropdown-farm" transform="translate(-242.738 -284.551)">
    <path id="Path_10366" data-name="Path 10366" d="M276.494,402.205a1.286,1.286,0,0,0,.3-.189.425.425,0,0,0-.186-.706,1.48,1.48,0,0,0-1.107.228,5.788,5.788,0,0,0-.582-.135,3.956,3.956,0,0,1,.394-.326c.3-.215.689-.361.819-.736a.524.524,0,0,0-.156-.622c-.592-.457-1.366.28-1.754.691a3.7,3.7,0,0,0-.59.812c-2.766-.3-7.607-.435-12.564-.411a2.719,2.719,0,0,0,.645-.746c.068-.15-.008-.377-.207-.361a2.043,2.043,0,0,0-1.242.9c-.057.07-.109.143-.161.216l-.741.008a1.231,1.231,0,0,0-.7-.648c-.158-.057-.286.113-.255.255a1.313,1.313,0,0,0,.185.4,115.879,115.879,0,0,0-12.189.669,2.888,2.888,0,0,0-.187-.548c-.216-.466-.554-1.051-1.107-1.1a.377.377,0,0,0-.376.376c.052.436.4.684.608,1.059q.1.175.177.358a3.693,3.693,0,0,0-.949.287,1.621,1.621,0,0,0-.225.15,1.381,1.381,0,0,0-1.447-.3.308.308,0,0,0-.062.48,3.04,3.04,0,0,0,.918.423c.06.025.117.053.174.082-.3,1.805,3.734,4.9,6.29,4.15a32.573,32.573,0,0,1,13.268-1.109C268.011,406.568,279.513,405.246,276.494,402.205Z" transform="translate(0 -90.664)" fill="#65cc48"/>
    <g id="Group_4872" data-name="Group 4872" transform="translate(244.478 284.551)">
      <path id="Path_10367" data-name="Path 10367" d="M282.36,359.709s.4,8.215,0,8.534-1.285.555-1.634.2-2.339-10.9-2.339-10.9l17.7-2.378-.634,3.872s.159,8.39,0,8.68a2.34,2.34,0,0,1-1.825.248c-.317-.2-1.11-9.79-1.11-9.79Z" transform="translate(-272.578 -340.209)" fill="#c9c9c9"/>
      <path id="Path_10368" data-name="Path 10368" d="M286.159,385.55c.52.075.439-1.988.439-1.988s.632,2.02,1.316,2-.3-2.238-.3-2.238,1.724,1.651,2.135,1.206-1.509-1.8-1.509-1.8,2.217.848,2.375.538c.372-.729-2.293-1.248-2.293-1.248l-2.278.009S285.452,385.447,286.159,385.55Z" transform="translate(-278.431 -361.374)" fill="#ef99b6"/>
      <path id="Path_10369" data-name="Path 10369" d="M277.837,370.544c.97,1.09,1.832,2.315,3.577,1.59s2.52-3.181,2.52-3.181l-3.049-2.225-3.2,2.225Z" transform="translate(-272.027 -349.324)" fill="#ffc6d9"/>
      <path id="Path_10370" data-name="Path 10370" d="M281.411,295.174c-1.286.536-7.377,2.871-11.105,1.991s-9.416-3.069-11.253-1.446c-1.5,1.323-1.676,5.42-1.064,9.6.046.317.107.622.178.919.914,4.7,2.821,14.251,3.069,14.484.266.25,1.57.306,1.672,0,.065-.2.066-4.782.169-8.141.244.136.487.259.725.369,1.785.826,10.708.374,15.828-.712.363,3.547.739,8.138.989,8.215.4.122,1.507.45,1.666.167s2-10.245,2.359-13.386c.241-1.521.342-3.373.655-5.67C285.932,296.911,284.425,293.917,281.411,295.174Z" transform="translate(-256.239 -292.697)" fill="#e8e8e8"/>
      <g id="Group_4870" data-name="Group 4870" transform="translate(4.618 26.054)">
        <path id="Path_10371" data-name="Path 10371" d="M273.139,411.706c.266.25,1.57.306,1.672,0,.021-.064.035-.59.048-1.387-.731-.006-1.472.007-2.1.025A7.577,7.577,0,0,0,273.139,411.706Z" transform="translate(-272.761 -409.737)" fill="#333"/>
        <path id="Path_10372" data-name="Path 10372" d="M364.574,407.664a4.882,4.882,0,0,0,.316,1.61c.4.122,1.507.45,1.666.167.041-.073.194-.79.4-1.867Z" transform="translate(-345.13 -407.574)" fill="#333"/>
      </g>
      <g id="Group_4871" data-name="Group 4871" transform="translate(7.772 26.054)">
        <path id="Path_10373" data-name="Path 10373" d="M288.032,412.972c.349.356,1.237.12,1.634-.2a2.718,2.718,0,0,0,.156-1.114l-2.167.045A5.832,5.832,0,0,0,288.032,412.972Z" transform="translate(-287.655 -410.794)"/>
        <path id="Path_10374" data-name="Path 10374" d="M351.164,409.026a9.21,9.21,0,0,0,.067-1.452l-2.159.39a4.546,4.546,0,0,0,.267,1.31A2.34,2.34,0,0,0,351.164,409.026Z" transform="translate(-336.065 -407.574)"/>
      </g>
      <path id="Path_10375" data-name="Path 10375" d="M254.984,297.11c-2.012.811-3.271,4.989-3.271,7.739,0,2.55.155,6.072.205,6.379s.383.107.383.107-.229-7.467.2-8.68a10.21,10.21,0,0,1,1.816-3.44Z" transform="translate(-251.553 -294.45)" fill="#e8e8e8"/>
      <path id="Path_10376" data-name="Path 10376" d="M251.693,362.375c-.4-.019-1.038.67-.577,1.768s1.185,1.46,1.259,1.378-.521-1.008-.4-1.457S252.286,362.4,251.693,362.375Z" transform="translate(-250.955 -345.893)" fill="#333"/>
      <path id="Path_10377" data-name="Path 10377" d="M358.252,285.2c-1.428-.69-4.039.346-4.106.575-.1.355,1.171,1.54,2.758,1.129s5.077-1.283,6.108-.894,3.945.318,4.045-.133c.075-.339-.792-.881-1.11-1.005s-2.135-.806-3.368.328S358.252,285.2,358.252,285.2Z" transform="translate(-332.287 -284.551)" fill="#333"/>
      <path id="Path_10378" data-name="Path 10378" d="M363.852,295.174c-.264.11-.732.3-1.34.515l-.008.024c-.6,1.788.238,5.575-.234,8.026-.279,1.45,2.446,2.3,3.918,2.246a4.644,4.644,0,0,0,1.08-.178c.134-1.219.249-2.62.47-4.244C368.374,296.911,366.867,293.917,363.852,295.174Z" transform="translate(-338.681 -292.697)" fill="#c9c9c9"/>
      <path id="Path_10379" data-name="Path 10379" d="M370.284,287.2c-1.409.231-3.411-.391-4.125,1.736s.159,5.484.317,7.494,4.6,2.6,5.474,1.789,1.19-2,1.586-4.379S374.488,286.507,370.284,287.2Z" transform="translate(-341.542 -286.586)" fill="#e8e8e8"/>
      <path id="Path_10380" data-name="Path 10380" d="M368.465,321.4c-1.578.172-3.164,1.119-2.693,2.518s2.446,2.3,3.918,2.246A5.612,5.612,0,0,0,373.3,324.5c.555-.69-.159-2.686-1.586-2.957A10.511,10.511,0,0,0,368.465,321.4Z" transform="translate(-341.39 -313.546)" fill="#ffc6d9"/>
      <path id="Path_10381" data-name="Path 10381" d="M374.506,326.411c-.564.028-.482,3.1.39,2.765S375.544,326.359,374.506,326.411Z" transform="translate(-348.058 -317.545)" fill="#ef99b6"/>
      <path id="Path_10382" data-name="Path 10382" d="M389.232,325.688c-1.082-.074-.541,2.668,0,2.679S390.315,325.763,389.232,325.688Z" transform="translate(-359.455 -316.975)" fill="#ef99b6"/>
      <path id="Path_10383" data-name="Path 10383" d="M384.442,299.206c-.54,1.311-1.607,1.835-1,2.684s1.73-.52,2.762-.113a4.286,4.286,0,0,0,1.057.252,12.1,12.1,0,0,0,.075-4.308C385.806,298.137,384.982,297.895,384.442,299.206Z" transform="translate(-355.24 -294.931)" fill="#333"/>
      <path id="Path_10384" data-name="Path 10384" d="M263.008,296.649a2.338,2.338,0,0,0-.33.364,9.5,9.5,0,0,1,.33,3.146c-.011,1.672.761,3.283,1.922,3.31s2.137-1.021,3.037-1.528,2.725.128,3.439-.388a5.861,5.861,0,0,0,1.781-3.731C269.519,296.844,264.676,295.175,263.008,296.649Z" transform="translate(-260.195 -293.627)" fill="#333"/>
      <path id="Path_10385" data-name="Path 10385" d="M288.758,325.5c-1.148.375-1.749,1.122-1.491,1.91s.078.824,1.491.55,3.014-.835,2.618-1.506A2.965,2.965,0,0,0,288.758,325.5Z" transform="translate(-279.53 -316.784)" fill="#333"/>
      <path id="Path_10387" data-name="Path 10387" d="M355.247,348.085c-.532.381-1.544,1.506-.835,2.23s1.552.953,2.122.244,1.458-1.711.856-2.162A2.224,2.224,0,0,0,355.247,348.085Z" transform="translate(-332.31 -334.501)" fill="#333"/>
      <path id="Path_10388" data-name="Path 10388" d="M329.583,309.136c-1.7.84-1.322,1.539-2.905,3.03s-3.094,3.315-1.9,4.458a3.435,3.435,0,0,0,4.809,0c1.3-1.475,2.146-2.763,2.159-4.182S330.849,308.512,329.583,309.136Z" transform="translate(-308.804 -303.852)" fill="#333"/>
      <path id="Path_10391" data-name="Path 10391" d="M264.446,348.781c-.894-.323.1-1.1-.858-2.059-.914-.909-2.455-.085-3.976-.408q.043.219.094.431c.162.836.356,1.826.567,2.888.149.094.319.208.51.346a6.7,6.7,0,0,0,5.025.261C266.9,349.653,265.34,349.1,264.446,348.781Z" transform="translate(-257.779 -333.206)" fill="#333"/>
    </g>
  </g>
</svg>
