<svg xmlns="http://www.w3.org/2000/svg" width="196.068" height="52.17" viewBox="0 0 196.068 52.17">
  <g id="headerIllustrator" transform="translate(-6.601)">
    <path id="Path_10169" data-name="Path 10169" d="M967.353,1166.777s-25.041-40.31-34.582-42.109-17.715,14.686-17.715,14.686a13.085,13.085,0,0,0-10.961-2.3c-6.642,1.471-42.266,34.9-42.266,34.9l107.353-1.339Z" transform="translate(-797.924 -1120.441)" fill="#ceecfe"/>
    <path id="Path_10170" data-name="Path 10170" d="M563.454,1254.424c-22.232,3.7-55.59,36.943-81,36.943s-30.879-7.951-40.407-6.27-22.319,6.27-22.319,6.27l188.808.558S585.686,1250.725,563.454,1254.424Z" transform="translate(-405.869 -1240.886)" fill="#7ecafc"/>
    <path id="Path_10171" data-name="Path 10171" d="M1204.422,1110l3.782,30.561a.5.5,0,0,1-.494.558h-7.563a.5.5,0,0,1-.494-.558l3.782-30.561A.5.5,0,0,1,1204.422,1110Z" transform="translate(-1060.954 -1106.537)" fill="#299a66"/>
    <path id="Path_10172" data-name="Path 10172" d="M1318.621,1213.138l3.862,31.211a.426.426,0,0,1-.423.479h-7.724a.426.426,0,0,1-.423-.479l3.862-31.211A.426.426,0,0,1,1318.621,1213.138Z" transform="translate(-1183.352 -1202.404)" fill="#299a66"/>
    <g id="Group_4775" data-name="Group 4775" transform="translate(190.974 7.421)">
      <rect id="Rectangle_2904" data-name="Rectangle 2904" width="1.331" height="14.752" rx="0.665" transform="translate(3.623 25.574)" fill="#355389"/>
      <path id="Path_10173" data-name="Path 10173" d="M468.325,1171.792,472.187,1203a.426.426,0,0,1-.423.479H464.04a.426.426,0,0,1-.423-.479l3.862-31.211A.426.426,0,0,1,468.325,1171.792Z" transform="translate(-463.614 -1171.418)" fill="#299a66"/>
      <path id="Path_10174" data-name="Path 10174" d="M491.24,1428.686l-5.185,4.446a.426.426,0,0,1-.7-.376l.083-.668a.426.426,0,0,1,.146-.271l5.036-4.318a.426.426,0,0,1,.7.271l.067.54A.426.426,0,0,1,491.24,1428.686Z" transform="translate(-484.357 -1409.208)" fill="#81dbb2"/>
      <path id="Path_10175" data-name="Path 10175" d="M502.342,1319.871l-2.821.964a.426.426,0,0,1-.561-.456l.062-.5a.426.426,0,0,1,.285-.351l2.7-.924a.426.426,0,0,1,.561.351l.057.46A.426.426,0,0,1,502.342,1319.871Z" transform="translate(-496.564 -1308.125)" fill="#81dbb2"/>
    </g>
    <g id="Group_4776" data-name="Group 4776" transform="translate(180.434)">
      <rect id="Rectangle_2905" data-name="Rectangle 2905" width="0.957" height="16.775" transform="translate(4.426 27.245)" fill="#355389"/>
      <path id="Path_10176" data-name="Path 10176" d="M606.738,1067.337l4.228,30.344a.426.426,0,0,1-.422.485h-8.455a.426.426,0,0,1-.422-.485l4.228-30.344A.426.426,0,0,1,606.738,1067.337Z" transform="translate(-601.661 -1066.97)" fill="#299a66"/>
      <path id="Path_10177" data-name="Path 10177" d="M613.445,1428.9l-8.465-2.668.128-.918,8.2,2.584Z" transform="translate(-604.373 -1399.853)" fill="#81dbb2"/>
      <path id="Path_10178" data-name="Path 10178" d="M631.565,1290.122l-5.609-1.768.128-.918,5.342,1.684Z" transform="translate(-623.983 -1271.771)" fill="#81dbb2"/>
    </g>
    <path id="Path_10179" data-name="Path 10179" d="M610.556,1491.253s-24.375-21.173-55.8-22.474c-10.554-.437-53.769,8.32-90.16,15.2-1.53.289-4.837,3.12-6.386,3.412a272.977,272.977,0,0,1-38.476,4.132Z" transform="translate(-407.887 -1440.215)" fill="#65cc48"/>
    <path id="Path_10180" data-name="Path 10180" d="M2980.515,1401.67l-.035-1.823a2.38,2.38,0,0,1,2.3-2.448h0a6,6,0,0,1,5.808,6.17v2.491a2.867,2.867,0,0,0,1.43,2.515,2.532,2.532,0,0,1,1.244,2.222v1.313a4.787,4.787,0,0,1-1.672,3.639,2.9,2.9,0,0,0-1,2.216v1.86a3.619,3.619,0,0,1-3.5,3.723h-1.1a3.619,3.619,0,0,1-3.5-3.723h0c.318-2.6-.452-4.1-1.341-4.953a6.823,6.823,0,0,1-2.071-4.905v-.263a6.775,6.775,0,0,1,2.295-5.089A3.7,3.7,0,0,0,2980.515,1401.67Z" transform="translate(-2970.306 -1373.92)" fill="#0aa"/>
    <path id="Path_10181" data-name="Path 10181" d="M2639.642,1556.658s8.948-11.886,14.579-13.708.324,5.417.324,5.417,9.989-10.923,13.655-9.938c3.36.9,0,7.673,0,7.673s3.785-3.749,8.374-3.749-3.547,14.038-3.547,14.038Z" transform="translate(-2633.041 -1504.871)" fill="#ceecfe"/>
    <path id="Path_10182" data-name="Path 10182" d="M2277.271,1600.938s6.117-16.357,13.691-14.465c6.139,1.533,1.774,9.763,2.148,9.389s3.667-5.96,8.994-5.96-1.635,7.539-1.635,7.539,11.35-3.544,12.239.178c.737,3.089-3.388,3.32-3.388,3.32Z" transform="translate(-2242.113 -1549.418)" fill="#7ecafc"/>
    <g id="Group_4786" data-name="Group 4786" transform="translate(8.439 23.064)">
      <g id="Group_4777" data-name="Group 4777" transform="translate(85.93 3.892)">
        <path id="Path_10183" data-name="Path 10183" d="M1705.617,1446.336a12.541,12.541,0,0,0-1.27.959,46.955,46.955,0,0,0-16.613,23.335c-.067.214-.4.122-.337-.093a46.114,46.114,0,0,1,5.117-10.908,42.936,42.936,0,0,1,13.1-13.294Z" transform="translate(-1687.389 -1446.335)" fill="#0089d1"/>
      </g>
      <g id="Group_4778" data-name="Group 4778" transform="translate(85.686 4.927)">
        <path id="Path_10184" data-name="Path 10184" d="M1850.921,1460.977c-.491,3.234-2.179,6.143-3.342,9.161a78.108,78.108,0,0,0-3.9,14.9.065.065,0,0,1-.126-.017,47.842,47.842,0,0,1,1.96-9.666c2.248-7.657,4.6-10.648,5.3-14.411.013-.07.117-.039.106.029Z" transform="translate(-1843.545 -1460.908)" fill="#0089d1"/>
      </g>
      <path id="Path_10185" data-name="Path 10185" d="M1721.028,1431.967a2.914,2.914,0,0,1,.477,1.165,2.248,2.248,0,0,1-.128,1.106,2.424,2.424,0,0,0,.76-.985,2.378,2.378,0,0,0,.055-1.836c-.34-.718-1.079-.886-1.268-.585A1.292,1.292,0,0,0,1721.028,1431.967Z" transform="translate(-1620.568 -1427.91)" fill="#0089d1"/>
      <path id="Path_10186" data-name="Path 10186" d="M1793.025,1504.474a2.9,2.9,0,0,1,.334,1.209,2.24,2.24,0,0,1-.258,1.079,2.417,2.417,0,0,0,.869-.884,2.368,2.368,0,0,0,.271-1.81c-.251-.751-.963-1-1.185-.728A1.287,1.287,0,0,0,1793.025,1504.474Z" transform="translate(-1697.664 -1495.297)" fill="#0089d1"/>
      <path id="Path_10187" data-name="Path 10187" d="M1883.875,1543.7a2.147,2.147,0,0,1,.852.365,1.657,1.657,0,0,1,.5.647,1.788,1.788,0,0,0-.109-.91,1.752,1.752,0,0,0-.919-.993c-.549-.2-1.024.092-.968.347S1883.594,1543.585,1883.875,1543.7Z" transform="translate(-1795.005 -1532.001)" fill="#0089d1"/>
      <path id="Path_10188" data-name="Path 10188" d="M1892.952,1565.908a2.144,2.144,0,0,1,.852.366,1.653,1.653,0,0,1,.5.647,1.788,1.788,0,0,0-.109-.91,1.751,1.751,0,0,0-.919-.993c-.549-.2-1.024.092-.968.347S1892.671,1565.794,1892.952,1565.908Z" transform="translate(-1804.727 -1552.631)" fill="#0089d1"/>
      <path id="Path_10189" data-name="Path 10189" d="M1693.777,1477.186a2.687,2.687,0,0,0-.793-.845,2.069,2.069,0,0,0-.975-.316,2.231,2.231,0,0,1,1.116-.26,2.189,2.189,0,0,1,1.559.656c.472.56.329,1.243,0,1.286S1694.031,1477.467,1693.777,1477.186Z" transform="translate(-1591.155 -1469.778)" fill="#0089d1"/>
      <path id="Path_10190" data-name="Path 10190" d="M1737.7,1517.741a2.684,2.684,0,0,0-.793-.845,2.068,2.068,0,0,0-.975-.316,2.232,2.232,0,0,1,1.116-.26,2.19,2.19,0,0,1,1.559.656c.472.56.329,1.243,0,1.286S1737.957,1518.023,1737.7,1517.741Z" transform="translate(-1638.203 -1507.452)" fill="#0089d1"/>
      <path id="Path_10191" data-name="Path 10191" d="M1818.991,1484.5a2.688,2.688,0,0,0-1.15.146,2.073,2.073,0,0,0-.828.6,2.234,2.234,0,0,1,.444-1.056,2.19,2.19,0,0,1,1.447-.877c.73-.053,1.2.463,1.044.751S1819.368,1484.462,1818.991,1484.5Z" transform="translate(-1725.03 -1476.797)" fill="#0089d1"/>
      <path id="Path_10192" data-name="Path 10192" d="M1831.859,1515.632a2.682,2.682,0,0,0-1.15.146,2.07,2.07,0,0,0-.828.6,2.231,2.231,0,0,1,.444-1.056,2.191,2.191,0,0,1,1.447-.877c.73-.053,1.2.463,1.044.751S1832.236,1515.591,1831.859,1515.632Z" transform="translate(-1738.812 -1505.714)" fill="#0089d1"/>
      <path id="Path_10193" data-name="Path 10193" d="M1793.628,1580.241a2.685,2.685,0,0,0-.793-.845,2.069,2.069,0,0,0-.976-.316,2.233,2.233,0,0,1,1.116-.26,2.189,2.189,0,0,1,1.559.656c.472.559.329,1.243,0,1.286S1793.882,1580.523,1793.628,1580.241Z" transform="translate(-1698.102 -1565.512)" fill="#0089d1"/>
      <path id="Path_10194" data-name="Path 10194" d="M1673.546,1451.241a1.722,1.722,0,0,0-.61-.426,1.327,1.327,0,0,0-.654-.069,1.431,1.431,0,0,1,.666-.311,1.405,1.405,0,0,1,1.066.206c.37.289.371.737.173.807S1673.743,1451.384,1673.546,1451.241Z" transform="translate(-1569.087 -1446.227)" fill="#0089d1"/>
      <path id="Path_10195" data-name="Path 10195" d="M1684.429,1427.913a1.722,1.722,0,0,1-.026.743,1.33,1.33,0,0,1-.338.565,1.433,1.433,0,0,0,.649-.346,1.4,1.4,0,0,0,.476-.976c-.008-.469-.366-.74-.541-.623S1684.433,1427.67,1684.429,1427.913Z" transform="translate(-1580.799 -1424.714)" fill="#0089d1"/>
      <g id="Group_4781" data-name="Group 4781" transform="translate(0 0)">
        <g id="Group_4779" data-name="Group 4779" transform="translate(2.054 1.716)">
          <path id="Path_10196" data-name="Path 10196" d="M3046.759,1420.184a65.827,65.827,0,0,0-3.032,22.531h-.29a66.247,66.247,0,0,1,3.045-22.351c.531-1.674,1.064-3.635,2.627-4.652.03-.02.056.027.028.047C3047.731,1416.768,3047.256,1418.618,3046.759,1420.184Z" transform="translate(-3043.395 -1415.707)" fill="#0089d1"/>
        </g>
        <g id="Group_4780" data-name="Group 4780" transform="translate(3.405 8.034)">
          <path id="Path_10197" data-name="Path 10197" d="M2938.249,1525.326A82.259,82.259,0,0,1,2950,1504.66c.051-.065.167.023.116.089a82.164,82.164,0,0,0-11.5,20.577Z" transform="translate(-2938.249 -1504.637)" fill="#0089d1"/>
        </g>
        <path id="Path_10198" data-name="Path 10198" d="M3065.6,1406.516a2.9,2.9,0,0,1,.886.888,2.243,2.243,0,0,1,.306,1.066,2.419,2.419,0,0,0,.321-1.2,2.369,2.369,0,0,0-.654-1.709c-.588-.53-1.332-.4-1.39-.051S3065.31,1406.232,3065.6,1406.516Z" transform="translate(-3060.851 -1404.239)" fill="#0089d1"/>
        <path id="Path_10199" data-name="Path 10199" d="M3037.128,1480.4a2.9,2.9,0,0,0-1.205-.346,2.238,2.238,0,0,0-1.082.247,2.416,2.416,0,0,1,.893-.86,2.368,2.368,0,0,1,1.812-.253c.748.259.994.973.716,1.192A1.286,1.286,0,0,1,3037.128,1480.4Z" transform="translate(-3029.957 -1472.882)" fill="#0089d1"/>
        <path id="Path_10200" data-name="Path 10200" d="M3048.07,1519.669a2.9,2.9,0,0,0-1.205-.346,2.238,2.238,0,0,0-1.082.247,2.417,2.417,0,0,1,.893-.859,2.368,2.368,0,0,1,1.812-.253c.748.259.994.973.716,1.192A1.287,1.287,0,0,1,3048.07,1519.669Z" transform="translate(-3041.676 -1509.359)" fill="#0089d1"/>
        <path id="Path_10201" data-name="Path 10201" d="M2955.545,1579.141a2.9,2.9,0,0,0-1.206-.346,2.241,2.241,0,0,0-1.081.246,2.423,2.423,0,0,1,.893-.859,2.368,2.368,0,0,1,1.812-.253c.748.259.994.973.716,1.192A1.286,1.286,0,0,1,2955.545,1579.141Z" transform="translate(-2942.577 -1564.604)" fill="#0089d1"/>
        <path id="Path_10202" data-name="Path 10202" d="M2927.665,1537.2a2.9,2.9,0,0,0-1.205-.346,2.24,2.24,0,0,0-1.082.247,2.42,2.42,0,0,1,.893-.86,2.368,2.368,0,0,1,1.812-.253c.748.259.994.973.716,1.192A1.287,1.287,0,0,1,2927.665,1537.2Z" transform="translate(-2912.717 -1525.642)" fill="#0089d1"/>
        <path id="Path_10203" data-name="Path 10203" d="M3081.61,1452.427a2.9,2.9,0,0,1,1.015.737,2.241,2.241,0,0,1,.47,1,2.414,2.414,0,0,0,.128-1.233,2.368,2.368,0,0,0-.915-1.584c-.664-.431-1.378-.185-1.38.168S3081.273,1452.193,3081.61,1452.427Z" transform="translate(-3078.116 -1446.891)" fill="#0089d1"/>
        <path id="Path_10204" data-name="Path 10204" d="M3094.9,1494.148a2.531,2.531,0,0,1,1.295.428,1.936,1.936,0,0,1,.666,1,3.205,3.205,0,0,0,.034-1.544,1.969,1.969,0,0,0-1.258-1.494c-.843-.218-1.68.4-1.648.83S3094.468,1494.018,3094.9,1494.148Z" transform="translate(-3092.763 -1485.319)" fill="#0089d1"/>
        <path id="Path_10205" data-name="Path 10205" d="M3108.957,1559.889a2.532,2.532,0,0,1,1.348.2,1.935,1.935,0,0,1,.823.871,3.2,3.2,0,0,0-.226-1.528,1.97,1.97,0,0,0-1.491-1.261c-.867-.073-1.588.679-1.485,1.095S3108.513,1559.832,3108.957,1559.889Z" transform="translate(-3107.917 -1546.332)" fill="#0089d1"/>
        <path id="Path_10206" data-name="Path 10206" d="M3013.274,1580.937a2.064,2.064,0,0,1,1.029.422,1.578,1.578,0,0,1,.485.849,2.615,2.615,0,0,0,.116-1.254,1.606,1.606,0,0,0-.938-1.287c-.673-.225-1.389.232-1.387.581S3012.933,1580.807,3013.274,1580.937Z" transform="translate(-3004.944 -1566.246)" fill="#0089d1"/>
        <path id="Path_10207" data-name="Path 10207" d="M3022.509,1413.415a1.725,1.725,0,0,0-.7-.258,1.329,1.329,0,0,0-.65.1,1.434,1.434,0,0,1,.566-.469,1.406,1.406,0,0,1,1.083-.07c.431.186.546.619.372.737A.763.763,0,0,1,3022.509,1413.415Z" transform="translate(-3013.87 -1411.141)" fill="#0089d1"/>
        <path id="Path_10208" data-name="Path 10208" d="M3038.7,1392.291a1.716,1.716,0,0,1,.163.726,1.328,1.328,0,0,1-.184.632,1.431,1.431,0,0,0,.54-.5,1.4,1.4,0,0,0,.213-1.064c-.127-.452-.542-.622-.681-.466A.764.764,0,0,0,3038.7,1392.291Z" transform="translate(-3031.325 -1391.562)" fill="#0089d1"/>
        <path id="Path_10209" data-name="Path 10209" d="M2916.2,1504.236a1.727,1.727,0,0,0-.7-.258,1.329,1.329,0,0,0-.651.1,1.433,1.433,0,0,1,.566-.469,1.405,1.405,0,0,1,1.083-.07c.431.186.545.619.371.737A.763.763,0,0,1,2916.2,1504.236Z" transform="translate(-2900.005 -1495.508)" fill="#0089d1"/>
        <path id="Path_10210" data-name="Path 10210" d="M2934.722,1483.325a1.722,1.722,0,0,1,.222.71,1.328,1.328,0,0,1-.131.645,1.436,1.436,0,0,0,.5-.542,1.4,1.4,0,0,0,.125-1.078c-.164-.44-.59-.576-.717-.408A.762.762,0,0,0,2934.722,1483.325Z" transform="translate(-2919.959 -1476.115)" fill="#0089d1"/>
      </g>
      <g id="Group_4783" data-name="Group 4783" transform="translate(74.887 23.422)">
        <g id="Group_4782" data-name="Group 4782" transform="translate(0 1.629)">
          <path id="Path_10211" data-name="Path 10211" d="M2066.232,1744.133a6.929,6.929,0,0,0-.86.723,6.431,6.431,0,0,0-1.521,2.593c-.02.066-.026.126-.087.164a.033.033,0,0,1-.045-.012c-.037-.069-.006-.133.014-.205a6.045,6.045,0,0,1,.906-1.8,4.282,4.282,0,0,1,1.59-1.466s.007,0,0,.006Z" transform="translate(-2063.701 -1744.126)" fill="#0089d1"/>
        </g>
        <path id="Path_10212" data-name="Path 10212" d="M2045.685,1743.055a1.72,1.72,0,0,0-.7-.258,1.327,1.327,0,0,0-.65.1,1.431,1.431,0,0,1,.566-.469,1.405,1.405,0,0,1,1.083-.07c.431.186.545.619.371.737A.763.763,0,0,1,2045.685,1743.055Z" transform="translate(-2042.526 -1740.78)" fill="#0089d1"/>
        <path id="Path_10213" data-name="Path 10213" d="M2061.878,1721.93a1.721,1.721,0,0,1,.163.726,1.329,1.329,0,0,1-.184.632,1.434,1.434,0,0,0,.54-.5,1.406,1.406,0,0,0,.213-1.064c-.127-.452-.542-.622-.681-.466A.763.763,0,0,0,2061.878,1721.93Z" transform="translate(-2059.981 -1721.202)" fill="#0089d1"/>
      </g>
      <g id="Group_4785" data-name="Group 4785" transform="translate(104.358 18.036)">
        <g id="Group_4784" data-name="Group 4784" transform="translate(0 1.821)">
          <path id="Path_10214" data-name="Path 10214" d="M1493.869,1671.054c-4.328,1.324-8.074,4.056-11.675,6.711a21.508,21.508,0,0,0-2.732,2.425.111.111,0,0,1-.162-.124,3.047,3.047,0,0,1,.963-1.151,15.061,15.061,0,0,1,1.238-1.014c.916-.681,1.867-1.318,2.81-1.96a45.373,45.373,0,0,1,5.982-3.562,22.994,22.994,0,0,1,3.567-1.359.018.018,0,0,1,.01.035Z" transform="translate(-1479.295 -1671.018)" fill="#0089d1"/>
        </g>
        <path id="Path_10215" data-name="Path 10215" d="M1521.028,1646.639a2.9,2.9,0,0,1,.334,1.209,2.241,2.241,0,0,1-.257,1.079,2.42,2.42,0,0,0,.868-.884,2.369,2.369,0,0,0,.271-1.81c-.251-.751-.963-1-1.185-.728A1.286,1.286,0,0,0,1521.028,1646.639Z" transform="translate(-1510.698 -1645.396)" fill="#0089d1"/>
        <path id="Path_10216" data-name="Path 10216" d="M1572.1,1676.664a2.9,2.9,0,0,1,.334,1.209,2.237,2.237,0,0,1-.258,1.079,2.415,2.415,0,0,0,.869-.884,2.369,2.369,0,0,0,.271-1.809c-.251-.751-.963-1-1.185-.728A1.286,1.286,0,0,0,1572.1,1676.664Z" transform="translate(-1565.399 -1673.287)" fill="#0089d1"/>
        <path id="Path_10217" data-name="Path 10217" d="M1623.067,1712.053a2.9,2.9,0,0,1,.334,1.209,2.241,2.241,0,0,1-.257,1.079,2.419,2.419,0,0,0,.868-.884,2.37,2.37,0,0,0,.271-1.81c-.251-.751-.963-1-1.185-.728A1.286,1.286,0,0,0,1623.067,1712.053Z" transform="translate(-1619.988 -1706.163)" fill="#0089d1"/>
        <path id="Path_10218" data-name="Path 10218" d="M1497.874,1692.352a2.685,2.685,0,0,0-.793-.845,2.07,2.07,0,0,0-.976-.316,2.234,2.234,0,0,1,1.116-.26,2.188,2.188,0,0,1,1.559.656c.472.559.329,1.243,0,1.286S1498.128,1692.633,1497.874,1692.352Z" transform="translate(-1485.691 -1687.692)" fill="#0089d1"/>
        <path id="Path_10219" data-name="Path 10219" d="M1551.042,1723.348a2.683,2.683,0,0,0-.793-.845,2.069,2.069,0,0,0-.975-.316,2.234,2.234,0,0,1,1.116-.26,2.191,2.191,0,0,1,1.559.656c.472.559.329,1.243,0,1.286S1551.3,1723.629,1551.042,1723.348Z" transform="translate(-1542.637 -1716.485)" fill="#0089d1"/>
        <path id="Path_10220" data-name="Path 10220" d="M1464.048,1671.078a1.717,1.717,0,0,0-.61-.426,1.329,1.329,0,0,0-.654-.07,1.435,1.435,0,0,1,.666-.311,1.406,1.406,0,0,1,1.066.206c.37.289.371.737.173.807S1464.245,1671.221,1464.048,1671.078Z" transform="translate(-1449.061 -1668.479)" fill="#0089d1"/>
        <path id="Path_10221" data-name="Path 10221" d="M1474.93,1647.75a1.723,1.723,0,0,1-.026.743,1.33,1.33,0,0,1-.338.565,1.435,1.435,0,0,0,.649-.346,1.4,1.4,0,0,0,.476-.976c-.008-.469-.366-.739-.541-.623S1474.934,1647.507,1474.93,1647.75Z" transform="translate(-1460.772 -1646.966)" fill="#0089d1"/>
      </g>
    </g>
  </g>
</svg>
