<svg xmlns="http://www.w3.org/2000/svg" width="37.117" height="44.02" viewBox="0 0 37.117 44.02">
  <g id="L-searchAreaillustrator" transform="translate(-231.833 -266.98)">
    <g id="Group_4775" data-name="Group 4775" transform="translate(260.373 270.674)">
      <rect id="Rectangle_2904" data-name="Rectangle 2904" width="1.331" height="14.752" rx="0.665" transform="translate(3.623 25.574)" fill="#355389"/>
      <path id="Path_10173" data-name="Path 10173" d="M468.325,1171.792,472.187,1203a.426.426,0,0,1-.423.479H464.04a.426.426,0,0,1-.423-.479l3.862-31.211A.426.426,0,0,1,468.325,1171.792Z" transform="translate(-463.614 -1171.418)" fill="#299a66"/>
      <path id="Path_10174" data-name="Path 10174" d="M491.24,1428.686l-5.185,4.446a.426.426,0,0,1-.7-.376l.083-.668a.426.426,0,0,1,.146-.271l5.036-4.318a.426.426,0,0,1,.7.271l.067.54A.426.426,0,0,1,491.24,1428.686Z" transform="translate(-484.357 -1409.208)" fill="#81dbb2"/>
      <path id="Path_10175" data-name="Path 10175" d="M502.342,1319.871l-2.821.964a.426.426,0,0,1-.561-.456l.062-.5a.426.426,0,0,1,.285-.351l2.7-.924a.426.426,0,0,1,.561.351l.057.46A.426.426,0,0,1,502.342,1319.871Z" transform="translate(-496.564 -1308.125)" fill="#81dbb2"/>
    </g>
    <g id="Group_4776" data-name="Group 4776" transform="translate(231.833 266.98)">
      <rect id="Rectangle_2905" data-name="Rectangle 2905" width="0.957" height="16.775" transform="translate(4.426 27.245)" fill="#355389"/>
      <path id="Path_10176" data-name="Path 10176" d="M606.738,1067.337l4.228,30.344a.426.426,0,0,1-.422.485h-8.455a.426.426,0,0,1-.422-.485l4.228-30.344A.426.426,0,0,1,606.738,1067.337Z" transform="translate(-601.661 -1066.97)" fill="#299a66"/>
      <path id="Path_10177" data-name="Path 10177" d="M613.445,1428.9l-8.465-2.668.128-.918,8.2,2.584Z" transform="translate(-604.373 -1399.853)" fill="#81dbb2"/>
      <path id="Path_10178" data-name="Path 10178" d="M631.565,1290.122l-5.609-1.768.128-.918,5.342,1.684Z" transform="translate(-623.983 -1271.771)" fill="#81dbb2"/>
    </g>
    <g id="Group_4843" data-name="Group 4843" transform="translate(241.833 266.98)">
      <rect id="Rectangle_2905-2" data-name="Rectangle 2905" width="0.957" height="16.775" transform="translate(4.426 27.245)" fill="#355389"/>
      <path id="Path_10176-2" data-name="Path 10176" d="M605.128,1067.221l2.887,20.724a.291.291,0,0,1-.288.331h-5.775a.291.291,0,0,1-.288-.331l2.887-20.724A.291.291,0,0,1,605.128,1067.221Z" transform="translate(-599.935 -1057.08)" fill="#299a66"/>
      <path id="Path_10177-2" data-name="Path 10177" d="M610.762,1427.764l-5.781-1.822.087-.627,5.6,1.765Z" transform="translate(-602.84 -1398.035)" fill="#81dbb2"/>
      <path id="Path_10178-2" data-name="Path 10178" d="M629.786,1289.271l-3.831-1.208.087-.627,3.648,1.15Z" transform="translate(-622.882 -1266.847)" fill="#81dbb2"/>
    </g>
  </g>
</svg>
